<svg xmlns="http://www.w3.org/2000/svg" viewBox="0 0 900 1200" width="900" height="1200" preserveAspectRatio="xMidYMid slice">
<!-- ẢNH TẠM: thay bằng ảnh thật cùng tên (xem src/lib/media.ts) -->
<defs>
<linearGradient id="g" x1="0" y1="0" x2="1" y2="1"><stop offset="0" stop-color="#d98b1f"/><stop offset="1" stop-color="#3a2400"/></linearGradient>
<radialGradient id="sun" cx="0.39" cy="0.23" r="0.55"><stop offset="0" stop-color="#fff1a8" stop-opacity=".85"/><stop offset=".35" stop-color="#fff1a8" stop-opacity=".25"/><stop offset="1" stop-color="#fff1a8" stop-opacity="0"/></radialGradient>
<filter id="b" x="-20%" y="-20%" width="140%" height="140%"><feGaussianBlur stdDeviation="10"/></filter>
<filter id="n"><feTurbulence type="fractalNoise" baseFrequency=".8" numOctaves="2" stitchTiles="stitch"/><feColorMatrix values="0 0 0 0 1 0 0 0 0 1 0 0 0 0 1 0 0 0 .07 0"/></filter>
<linearGradient id="v" x1="0" y1="0" x2="0" y2="1"><stop offset=".55" stop-color="#000" stop-opacity="0"/><stop offset="1" stop-color="#000" stop-opacity=".45"/></linearGradient>
</defs>
<rect width="900" height="1200" fill="url(#g)"/>
<rect width="900" height="1200" fill="url(#sun)"/>
<g filter="url(#b)"><circle cx="576" cy="438" r="62" fill="#ffffff" opacity="0.10"/><circle cx="417" cy="45" r="58" fill="#d98b1f" opacity="0.24"/><circle cx="240" cy="336" r="63" fill="#ffffff" opacity="0.21"/><circle cx="361" cy="952" r="19" fill="#d98b1f" opacity="0.21"/><circle cx="474" cy="12" r="39" fill="#ffffff" opacity="0.22"/><circle cx="777" cy="1013" r="48" fill="#fff1a8" opacity="0.12"/><circle cx="225" cy="762" r="74" fill="#d98b1f" opacity="0.10"/><circle cx="264" cy="186" r="44" fill="#d98b1f" opacity="0.19"/><circle cx="573" cy="182" r="31" fill="#ffffff" opacity="0.27"/><circle cx="336" cy="244" r="63" fill="#ffffff" opacity="0.15"/><circle cx="893" cy="150" r="71" fill="#fff1a8" opacity="0.32"/><circle cx="716" cy="859" r="16" fill="#ffffff" opacity="0.28"/><circle cx="746" cy="753" r="75" fill="#ffffff" opacity="0.32"/><circle cx="895" cy="225" r="23" fill="#ffffff" opacity="0.20"/><circle cx="58" cy="611" r="17" fill="#fff1a8" opacity="0.20"/><circle cx="131" cy="143" r="48" fill="#ffffff" opacity="0.28"/><circle cx="611" cy="745" r="27" fill="#d98b1f" opacity="0.17"/><circle cx="582" cy="28" r="19" fill="#ffffff" opacity="0.27"/><circle cx="892" cy="288" r="23" fill="#ffffff" opacity="0.13"/><circle cx="270" cy="245" r="16" fill="#fff1a8" opacity="0.22"/><circle cx="482" cy="452" r="39" fill="#fff1a8" opacity="0.27"/><circle cx="696" cy="265" r="41" fill="#d98b1f" opacity="0.25"/></g>
<path d="M0 936 C 225 826 495 973 900 877 L 900 1200 L 0 1200 Z" fill="#3a2400" opacity=".55" filter="url(#b)"/>
<rect width="900" height="1200" fill="url(#v)"/>
<rect width="900" height="1200" filter="url(#n)"/>
</svg>