<svg xmlns="http://www.w3.org/2000/svg" viewBox="0 0 1920 1080" width="1920" height="1080" preserveAspectRatio="xMidYMid slice">
<!-- ẢNH TẠM: thay bằng ảnh thật cùng tên (xem src/lib/media.ts) -->
<defs>
<linearGradient id="g" x1="0" y1="0" x2="1" y2="1"><stop offset="0" stop-color="#d98b1f"/><stop offset="1" stop-color="#3a2400"/></linearGradient>
<radialGradient id="sun" cx="0.72" cy="0.30" r="0.55"><stop offset="0" stop-color="#fff1a8" stop-opacity=".85"/><stop offset=".35" stop-color="#fff1a8" stop-opacity=".25"/><stop offset="1" stop-color="#fff1a8" stop-opacity="0"/></radialGradient>
<filter id="b" x="-20%" y="-20%" width="140%" height="140%"><feGaussianBlur stdDeviation="21"/></filter>
<filter id="n"><feTurbulence type="fractalNoise" baseFrequency=".8" numOctaves="2" stitchTiles="stitch"/><feColorMatrix values="0 0 0 0 1 0 0 0 0 1 0 0 0 0 1 0 0 0 .07 0"/></filter>
<linearGradient id="v" x1="0" y1="0" x2="0" y2="1"><stop offset=".55" stop-color="#000" stop-opacity="0"/><stop offset="1" stop-color="#000" stop-opacity=".45"/></linearGradient>
</defs>
<rect width="1920" height="1080" fill="url(#g)"/>
<rect width="1920" height="1080" fill="url(#sun)"/>
<g filter="url(#b)"><circle cx="1097" cy="394" r="112" fill="#d98b1f" opacity="0.14"/><circle cx="1581" cy="600" r="52" fill="#d98b1f" opacity="0.22"/><circle cx="146" cy="874" r="136" fill="#d98b1f" opacity="0.18"/><circle cx="1652" cy="554" r="84" fill="#ffffff" opacity="0.16"/><circle cx="504" cy="160" r="72" fill="#d98b1f" opacity="0.18"/><circle cx="1474" cy="902" r="168" fill="#fff1a8" opacity="0.25"/><circle cx="1119" cy="216" r="57" fill="#ffffff" opacity="0.33"/><circle cx="703" cy="825" r="74" fill="#d98b1f" opacity="0.23"/><circle cx="902" cy="599" r="76" fill="#fff1a8" opacity="0.22"/><circle cx="1862" cy="219" r="33" fill="#ffffff" opacity="0.16"/><circle cx="1263" cy="490" r="152" fill="#ffffff" opacity="0.12"/><circle cx="1815" cy="838" r="50" fill="#fff1a8" opacity="0.34"/><circle cx="848" cy="901" r="56" fill="#d98b1f" opacity="0.17"/><circle cx="856" cy="625" r="49" fill="#fff1a8" opacity="0.22"/><circle cx="513" cy="278" r="124" fill="#fff1a8" opacity="0.33"/><circle cx="1493" cy="441" r="79" fill="#fff1a8" opacity="0.20"/><circle cx="1046" cy="40" r="158" fill="#d98b1f" opacity="0.15"/><circle cx="860" cy="535" r="85" fill="#ffffff" opacity="0.31"/><circle cx="1715" cy="676" r="172" fill="#d98b1f" opacity="0.15"/><circle cx="1156" cy="58" r="99" fill="#d98b1f" opacity="0.20"/><circle cx="261" cy="497" r="79" fill="#ffffff" opacity="0.18"/><circle cx="318" cy="405" r="168" fill="#fff1a8" opacity="0.19"/></g>
<path d="M0 842 C 480 678 1056 902 1920 729 L 1920 1080 L 0 1080 Z" fill="#3a2400" opacity=".55" filter="url(#b)"/>
<rect width="1920" height="1080" fill="url(#v)"/>
<rect width="1920" height="1080" filter="url(#n)"/>
</svg>