<svg xmlns="http://www.w3.org/2000/svg" viewBox="0 0 1000 1000" width="1000" height="1000" preserveAspectRatio="xMidYMid slice">
<!-- ẢNH TẠM: thay bằng ảnh thật cùng tên (xem src/lib/media.ts) -->
<defs>
<linearGradient id="g" x1="0" y1="0" x2="1" y2="1"><stop offset="0" stop-color="#b86d09"/><stop offset="1" stop-color="#1e1206"/></linearGradient>
<radialGradient id="sun" cx="0.31" cy="0.46" r="0.55"><stop offset="0" stop-color="#ffd27a" stop-opacity=".85"/><stop offset=".35" stop-color="#ffd27a" stop-opacity=".25"/><stop offset="1" stop-color="#ffd27a" stop-opacity="0"/></radialGradient>
<filter id="b" x="-20%" y="-20%" width="140%" height="140%"><feGaussianBlur stdDeviation="11"/></filter>
<filter id="n"><feTurbulence type="fractalNoise" baseFrequency=".8" numOctaves="2" stitchTiles="stitch"/><feColorMatrix values="0 0 0 0 1 0 0 0 0 1 0 0 0 0 1 0 0 0 .07 0"/></filter>
<linearGradient id="v" x1="0" y1="0" x2="0" y2="1"><stop offset=".55" stop-color="#000" stop-opacity="0"/><stop offset="1" stop-color="#000" stop-opacity=".45"/></linearGradient>
</defs>
<rect width="1000" height="1000" fill="url(#g)"/>
<rect width="1000" height="1000" fill="url(#sun)"/>
<g filter="url(#b)"><circle cx="688" cy="640" r="42" fill="#ffffff" opacity="0.27"/><circle cx="64" cy="507" r="80" fill="#ffffff" opacity="0.31"/><circle cx="260" cy="227" r="41" fill="#ffd27a" opacity="0.12"/><circle cx="169" cy="812" r="61" fill="#ffffff" opacity="0.22"/><circle cx="965" cy="192" r="42" fill="#ffffff" opacity="0.29"/><circle cx="655" cy="705" r="71" fill="#ffd27a" opacity="0.12"/><circle cx="905" cy="559" r="33" fill="#b86d09" opacity="0.09"/><circle cx="48" cy="6" r="37" fill="#ffffff" opacity="0.23"/><circle cx="347" cy="656" r="74" fill="#ffd27a" opacity="0.13"/><circle cx="573" cy="589" r="36" fill="#b86d09" opacity="0.31"/><circle cx="277" cy="394" r="19" fill="#b86d09" opacity="0.27"/><circle cx="819" cy="839" r="80" fill="#ffffff" opacity="0.15"/><circle cx="647" cy="750" r="24" fill="#ffd27a" opacity="0.11"/><circle cx="315" cy="641" r="85" fill="#ffffff" opacity="0.25"/><circle cx="836" cy="274" r="47" fill="#ffd27a" opacity="0.11"/><circle cx="954" cy="56" r="51" fill="#ffd27a" opacity="0.10"/><circle cx="614" cy="41" r="48" fill="#b86d09" opacity="0.18"/><circle cx="427" cy="749" r="51" fill="#ffffff" opacity="0.13"/><circle cx="604" cy="100" r="89" fill="#ffffff" opacity="0.35"/><circle cx="387" cy="287" r="68" fill="#ffffff" opacity="0.19"/><circle cx="661" cy="775" r="80" fill="#ffd27a" opacity="0.09"/><circle cx="67" cy="656" r="18" fill="#ffffff" opacity="0.21"/></g>
<path d="M0 780 C 250 681 550 872 1000 706 L 1000 1000 L 0 1000 Z" fill="#1e1206" opacity=".55" filter="url(#b)"/>
<rect width="1000" height="1000" fill="url(#v)"/>
<rect width="1000" height="1000" filter="url(#n)"/>
</svg>