<svg xmlns="http://www.w3.org/2000/svg" viewBox="0 0 1600 1000" width="1600" height="1000" preserveAspectRatio="xMidYMid slice">
<!-- ẢNH TẠM: thay bằng ảnh thật cùng tên (xem src/lib/media.ts) -->
<defs>
<linearGradient id="g" x1="0" y1="0" x2="1" y2="1"><stop offset="0" stop-color="#0b7b48"/><stop offset="1" stop-color="#062218"/></linearGradient>
<radialGradient id="sun" cx="0.79" cy="0.24" r="0.55"><stop offset="0" stop-color="#ffd416" stop-opacity=".85"/><stop offset=".35" stop-color="#ffd416" stop-opacity=".25"/><stop offset="1" stop-color="#ffd416" stop-opacity="0"/></radialGradient>
<filter id="b" x="-20%" y="-20%" width="140%" height="140%"><feGaussianBlur stdDeviation="18"/></filter>
<filter id="n"><feTurbulence type="fractalNoise" baseFrequency=".8" numOctaves="2" stitchTiles="stitch"/><feColorMatrix values="0 0 0 0 1 0 0 0 0 1 0 0 0 0 1 0 0 0 .07 0"/></filter>
<linearGradient id="v" x1="0" y1="0" x2="0" y2="1"><stop offset=".55" stop-color="#000" stop-opacity="0"/><stop offset="1" stop-color="#000" stop-opacity=".45"/></linearGradient>
</defs>
<rect width="1600" height="1000" fill="url(#g)"/>
<rect width="1600" height="1000" fill="url(#sun)"/>
<g filter="url(#b)"><circle cx="816" cy="507" r="60" fill="#ffffff" opacity="0.33"/><circle cx="586" cy="187" r="141" fill="#ffffff" opacity="0.26"/><circle cx="256" cy="258" r="110" fill="#0b7b48" opacity="0.15"/><circle cx="606" cy="534" r="41" fill="#0b7b48" opacity="0.17"/><circle cx="119" cy="686" r="38" fill="#ffffff" opacity="0.25"/><circle cx="131" cy="507" r="83" fill="#ffffff" opacity="0.16"/><circle cx="63" cy="736" r="62" fill="#ffd416" opacity="0.20"/><circle cx="1098" cy="325" r="79" fill="#ffffff" opacity="0.34"/><circle cx="35" cy="166" r="81" fill="#0b7b48" opacity="0.29"/><circle cx="775" cy="174" r="104" fill="#0b7b48" opacity="0.25"/><circle cx="164" cy="766" r="96" fill="#ffd416" opacity="0.11"/><circle cx="81" cy="536" r="121" fill="#0b7b48" opacity="0.35"/><circle cx="1525" cy="542" r="126" fill="#0b7b48" opacity="0.28"/><circle cx="1270" cy="767" r="130" fill="#0b7b48" opacity="0.31"/><circle cx="1295" cy="668" r="53" fill="#ffd416" opacity="0.13"/><circle cx="1127" cy="310" r="81" fill="#0b7b48" opacity="0.13"/><circle cx="86" cy="337" r="129" fill="#ffffff" opacity="0.22"/><circle cx="1275" cy="353" r="112" fill="#0b7b48" opacity="0.31"/><circle cx="1568" cy="351" r="86" fill="#ffffff" opacity="0.11"/><circle cx="142" cy="86" r="29" fill="#ffffff" opacity="0.20"/><circle cx="649" cy="647" r="66" fill="#0b7b48" opacity="0.26"/><circle cx="839" cy="566" r="131" fill="#0b7b48" opacity="0.23"/></g>
<path d="M0 780 C 400 688 880 892 1600 666 L 1600 1000 L 0 1000 Z" fill="#062218" opacity=".55" filter="url(#b)"/>
<rect width="1600" height="1000" fill="url(#v)"/>
<rect width="1600" height="1000" filter="url(#n)"/>
</svg>