<svg xmlns="http://www.w3.org/2000/svg" viewBox="0 0 1600 1000" width="1600" height="1000" preserveAspectRatio="xMidYMid slice">
<!-- ẢNH TẠM: thay bằng ảnh thật cùng tên (xem src/lib/media.ts) -->
<defs>
<linearGradient id="g" x1="0" y1="0" x2="1" y2="1"><stop offset="0" stop-color="#1f7a6b"/><stop offset="1" stop-color="#04201f"/></linearGradient>
<radialGradient id="sun" cx="0.74" cy="0.18" r="0.55"><stop offset="0" stop-color="#c9fff1" stop-opacity=".85"/><stop offset=".35" stop-color="#c9fff1" stop-opacity=".25"/><stop offset="1" stop-color="#c9fff1" stop-opacity="0"/></radialGradient>
<filter id="b" x="-20%" y="-20%" width="140%" height="140%"><feGaussianBlur stdDeviation="18"/></filter>
<filter id="n"><feTurbulence type="fractalNoise" baseFrequency=".8" numOctaves="2" stitchTiles="stitch"/><feColorMatrix values="0 0 0 0 1 0 0 0 0 1 0 0 0 0 1 0 0 0 .07 0"/></filter>
<linearGradient id="v" x1="0" y1="0" x2="0" y2="1"><stop offset=".55" stop-color="#000" stop-opacity="0"/><stop offset="1" stop-color="#000" stop-opacity=".45"/></linearGradient>
</defs>
<rect width="1600" height="1000" fill="url(#g)"/>
<rect width="1600" height="1000" fill="url(#sun)"/>
<g filter="url(#b)"><circle cx="1433" cy="167" r="38" fill="#ffffff" opacity="0.11"/><circle cx="1586" cy="577" r="101" fill="#1f7a6b" opacity="0.27"/><circle cx="99" cy="468" r="42" fill="#c9fff1" opacity="0.16"/><circle cx="1544" cy="629" r="94" fill="#c9fff1" opacity="0.12"/><circle cx="847" cy="738" r="118" fill="#ffffff" opacity="0.29"/><circle cx="1328" cy="589" r="26" fill="#1f7a6b" opacity="0.13"/><circle cx="975" cy="828" r="131" fill="#ffffff" opacity="0.27"/><circle cx="1426" cy="215" r="143" fill="#ffffff" opacity="0.31"/><circle cx="1379" cy="406" r="108" fill="#ffffff" opacity="0.13"/><circle cx="1525" cy="521" r="126" fill="#ffffff" opacity="0.23"/><circle cx="1197" cy="806" r="47" fill="#c9fff1" opacity="0.22"/><circle cx="1480" cy="283" r="55" fill="#ffffff" opacity="0.23"/><circle cx="277" cy="559" r="74" fill="#c9fff1" opacity="0.15"/><circle cx="217" cy="807" r="139" fill="#1f7a6b" opacity="0.32"/><circle cx="666" cy="586" r="57" fill="#1f7a6b" opacity="0.33"/><circle cx="1514" cy="145" r="31" fill="#ffffff" opacity="0.13"/><circle cx="1590" cy="278" r="131" fill="#1f7a6b" opacity="0.08"/><circle cx="1337" cy="581" r="85" fill="#1f7a6b" opacity="0.22"/><circle cx="697" cy="820" r="89" fill="#ffffff" opacity="0.27"/><circle cx="1259" cy="261" r="131" fill="#ffffff" opacity="0.17"/><circle cx="1474" cy="119" r="100" fill="#c9fff1" opacity="0.32"/><circle cx="1473" cy="446" r="120" fill="#c9fff1" opacity="0.21"/></g>
<path d="M0 780 C 400 721 880 840 1600 685 L 1600 1000 L 0 1000 Z" fill="#04201f" opacity=".55" filter="url(#b)"/>
<rect width="1600" height="1000" fill="url(#v)"/>
<rect width="1600" height="1000" filter="url(#n)"/>
</svg>