<svg xmlns="http://www.w3.org/2000/svg" viewBox="0 0 900 1200" width="900" height="1200" preserveAspectRatio="xMidYMid slice">
<!-- ẢNH TẠM: thay bằng ảnh thật cùng tên (xem src/lib/media.ts) -->
<defs>
<linearGradient id="g" x1="0" y1="0" x2="1" y2="1"><stop offset="0" stop-color="#b8325a"/><stop offset="1" stop-color="#2a0a14"/></linearGradient>
<radialGradient id="sun" cx="0.68" cy="0.39" r="0.55"><stop offset="0" stop-color="#ffc2d1" stop-opacity=".85"/><stop offset=".35" stop-color="#ffc2d1" stop-opacity=".25"/><stop offset="1" stop-color="#ffc2d1" stop-opacity="0"/></radialGradient>
<filter id="b" x="-20%" y="-20%" width="140%" height="140%"><feGaussianBlur stdDeviation="10"/></filter>
<filter id="n"><feTurbulence type="fractalNoise" baseFrequency=".8" numOctaves="2" stitchTiles="stitch"/><feColorMatrix values="0 0 0 0 1 0 0 0 0 1 0 0 0 0 1 0 0 0 .07 0"/></filter>
<linearGradient id="v" x1="0" y1="0" x2="0" y2="1"><stop offset=".55" stop-color="#000" stop-opacity="0"/><stop offset="1" stop-color="#000" stop-opacity=".45"/></linearGradient>
</defs>
<rect width="900" height="1200" fill="url(#g)"/>
<rect width="900" height="1200" fill="url(#sun)"/>
<g filter="url(#b)"><circle cx="117" cy="832" r="73" fill="#b8325a" opacity="0.18"/><circle cx="340" cy="989" r="34" fill="#ffffff" opacity="0.13"/><circle cx="768" cy="194" r="26" fill="#b8325a" opacity="0.33"/><circle cx="92" cy="329" r="80" fill="#ffffff" opacity="0.19"/><circle cx="792" cy="625" r="75" fill="#ffffff" opacity="0.28"/><circle cx="732" cy="457" r="37" fill="#ffffff" opacity="0.28"/><circle cx="848" cy="206" r="65" fill="#ffc2d1" opacity="0.21"/><circle cx="873" cy="494" r="74" fill="#ffc2d1" opacity="0.32"/><circle cx="886" cy="190" r="36" fill="#ffffff" opacity="0.27"/><circle cx="566" cy="360" r="66" fill="#ffffff" opacity="0.13"/><circle cx="327" cy="182" r="29" fill="#b8325a" opacity="0.24"/><circle cx="767" cy="195" r="49" fill="#ffffff" opacity="0.12"/><circle cx="834" cy="185" r="52" fill="#ffc2d1" opacity="0.17"/><circle cx="65" cy="945" r="57" fill="#ffffff" opacity="0.12"/><circle cx="41" cy="724" r="35" fill="#ffffff" opacity="0.15"/><circle cx="436" cy="298" r="40" fill="#ffc2d1" opacity="0.18"/><circle cx="166" cy="198" r="77" fill="#ffc2d1" opacity="0.25"/><circle cx="364" cy="31" r="76" fill="#b8325a" opacity="0.17"/><circle cx="785" cy="920" r="39" fill="#ffffff" opacity="0.20"/><circle cx="194" cy="1015" r="48" fill="#ffffff" opacity="0.11"/><circle cx="711" cy="875" r="69" fill="#b8325a" opacity="0.30"/><circle cx="385" cy="1011" r="39" fill="#ffc2d1" opacity="0.17"/></g>
<path d="M0 936 C 225 861 495 1026 900 844 L 900 1200 L 0 1200 Z" fill="#2a0a14" opacity=".55" filter="url(#b)"/>
<rect width="900" height="1200" fill="url(#v)"/>
<rect width="900" height="1200" filter="url(#n)"/>
</svg>